Coordinates
version=1
nRows=24
nColumns=24
inDegrees=yes

Units are S.I. units (second, meters, Newtons, ...)
Angles are in degrees.

endheader
time	pelvis_tilt	pelvis_list	pelvis_rotation	pelvis_tx	pelvis_ty	pelvis_tz	hip_flexion_r	hip_adduction_r	hip_rotation_r	knee_angle_r	ankle_angle_r	subtalar_angle_r	mtp_angle_r	hip_flexion_l	hip_adduction_l	hip_rotation_l	knee_angle_l	ankle_angle_l	subtalar_angle_l	mtp_angle_l	lumbar_extension	lumbar_bending	lumbar_rotation
      3.93500000	     -2.23474583	     -0.95396942	    362.21215973	      0.19601001	      1.38849026	     -0.97235156	     12.42877940	      3.97507941	      4.73252099	    -14.41994326	     -3.27013186	    -12.83003668	      3.99095012	     12.86232607	      2.36489692	      5.26623236	    -55.33880257	     -2.94537632	     10.88751986	     41.08250046	    -12.41715649	      8.87116948	     -0.67497036
      3.94000000	     -2.21793163	     -0.84656790	    362.20308132	      0.20079891	      1.38909417	     -0.97210470	     12.02146051	      3.89156128	      4.77674560	    -14.26532962	     -3.11636687	    -12.88100519	      3.98855995	     13.46559881	      2.45096156	      5.14247293	    -55.36003219	     -2.62485480	     10.87910688	     41.05338360	    -12.46160032	      8.73177254	     -0.74689356
      3.94500000	     -2.34413777	     -0.77558658	    362.18666285	      0.20549008	      1.38945741	     -0.97179648	     11.81183586	      3.85275340	      4.84789705	    -14.18141025	     -2.93434146	    -12.92259895	      3.75043395	     14.26711044	      2.48336051	      4.99464066	    -55.44369562	     -2.13292462	     11.24831478	     40.27777865	    -12.36490017	      8.61053057	     -0.82317404
      3.95000000	     -2.33327323	     -0.65952408	    362.17774946	      0.21026471	      1.39001947	     -0.97156568	     11.40244586	      3.75827314	      4.92194212	    -14.00905061	     -2.79304627	    -12.97641579	      3.73908156	     14.84731421	      2.57653375	      4.87312080	    -55.33587071	     -1.82386979	     11.19520693	     40.21460270	    -12.39732564	      8.46720884	     -0.91492655
      3.95500000	     -2.42289164	     -0.56866568	    362.15849041	      0.21496125	      1.39039037	     -0.97125032	     11.13489591	      3.70340053	      5.04176066	    -13.89296875	     -2.63572649	    -13.09441801	      3.47495460	     15.56416035	      2.62786800	      4.72531926	    -55.27046559	     -1.37458461	     11.40397104	     39.32937486	    -12.33806083	      8.31754857	     -0.99698834
      3.96000000	     -2.42187257	     -0.45276343	    362.15765424	      0.21968970	      1.39086754	     -0.97100482	     10.74054994	      3.61113322	      5.13500739	    -13.72795613	     -2.47413171	    -13.16018533	      3.34958736	     16.13675964	      2.71608118	      4.61075389	    -55.07357354	     -1.01443068	     11.43559664	     38.87036635	    -12.37149581	      8.15941951	     -1.09487224
      3.96500000	     -2.44726135	     -0.34098173	    362.15653364	      0.22440033	      1.39128008	     -0.97075060	     10.38375953	      3.52404003	      5.21817427	    -13.57518001	     -2.32751052	    -13.26808245	      3.24626483	     16.72951046	      2.79372900	      4.48569546	    -54.82641932	     -0.66027611	     11.42458356	     38.46803632	    -12.37781910	      8.00046034	     -1.18254319
      3.97000000	     -2.46204202	     -0.22189380	    362.17009239	      0.22912252	      1.39169100	     -0.97055690	     10.00810501	      3.41994986	      5.27963081	    -13.41107502	     -2.17842853	    -13.34494244	      3.24006561	     17.28549319	      2.88821081	      4.38884188	    -54.49185894	     -0.34278975	     11.34403920	     38.39987712	    -12.38814522	      7.84845270	     -1.26972988
      3.97500000	     -2.47273079	     -0.09779604	    362.17434661	      0.23381774	      1.39206980	     -0.97030276	      9.63267536	      3.32050370	      5.37904776	    -13.25714710	     -2.00639628	    -13.45288914	      3.06953740	     17.82653497	      2.97596282	      4.26842503	    -54.13413500	      0.02624541	     11.36548634	     37.63362421	    -12.41223512	      7.66308552	     -1.36674986
      3.98000000	     -2.51602510	      0.02856638	    362.18934857	      0.23851351	      1.39239834	     -0.97010694	      9.29719081	      3.20913917	      5.44905974	    -13.10958759	     -1.84535981	    -13.54242979	      3.00493687	     18.38547994	      3.07753943	      4.17011745	    -53.70030789	      0.31614849	     11.22280565	     37.28817431	    -12.40075426	      7.48631250	     -1.43598445
      3.98500000	     -2.54170449	      0.15638037	    362.21010706	      0.24318620	      1.39272262	     -0.96993283	      8.94429644	      3.09397945	      5.50314955	    -12.96385388	     -1.67222034	    -13.62335728	      2.93980148	     18.90564834	      3.17873763	      4.07579585	    -53.20412102	      0.60801523	     11.11339259	     36.91227228	    -12.41401999	      7.31162779	     -1.52299445
      3.99000000	     -2.57823596	      0.27748216	    362.24554888	      0.24784288	      1.39299519	     -0.96979927	      8.60740028	      2.98110942	      5.54096710	    -12.82412076	     -1.50703084	    -13.71001770	      2.93876014	     19.42562260	      3.27735370	      4.00432637	    -52.65121133	      0.88478008	     11.01463053	     36.82223177	    -12.42056634	      7.14708478	     -1.61163269
      3.99500000	     -2.61327294	      0.42651071	    362.25912336	      0.25251481	      1.39328047	     -0.96961109	      8.27550807	      2.84493585	      5.58761217	    -12.70129988	     -1.31416312	    -13.78977049	      2.90906444	     19.91033557	      3.39113880	      3.89021809	    -52.01865082	      1.05741209	     10.81831221	     36.50199982	    -12.42050940	      6.93032647	     -1.71804024
      4.00000000	     -2.62889716	      0.53588676	    362.29990705	      0.25716120	      1.39353016	     -0.96956535	      7.91608164	      2.73647917	      5.59733061	    -12.56235332	     -1.10281535	    -13.78351812	      2.83226749	     20.36833919	      3.49113210	      3.84105327	    -51.37023195	      1.33730613	     10.64733978	     35.91175802	    -12.45518828	      6.79298017	     -1.75064215
      4.00500000	     -2.68567280	      0.66722028	    362.33097088	      0.26179571	      1.39373219	     -0.96946603	      7.61546514	      2.60991323	      5.63787262	    -12.44897067	     -0.90120952	    -13.83472867	      2.81031338	     20.84847374	      3.59881648	      3.76940075	    -50.64067066	      1.51280037	     10.51585493	     35.65821927	    -12.44660756	      6.61261547	     -1.83678160
      4.01000000	     -2.74545764	      0.77250689	    362.37690552	      0.26640560	      1.39387870	     -0.96939042	      7.33221639	      2.51021557	      5.63050901	    -12.35872304	     -0.71873228	    -13.91363664	      2.81381283	     21.32090110	      3.68091091	      3.71713797	    -49.86815191	      1.71468959	     10.39350857	     35.53092323	    -12.44029578	      6.45197697	     -1.90054488
      4.01500000	     -2.76725985	      0.90406308	    362.40515035	      0.27103157	      1.39407273	     -0.96936694	      6.99601869	      2.37618231	      5.63722846	    -12.24811439	     -0.47614802	    -13.87322896	      2.79811061	     21.71583451	      3.79571155	      3.64931036	    -49.02386332	      1.81252651	     10.11086353	     35.10910930	    -12.48033646	      6.28588023	     -1.94515321
      4.02000000	     -2.84495081	      1.01342411	    362.45074048	      0.27564032	      1.39415804	     -0.96933987	      6.73855732	      2.26766392	      5.62538840	    -12.16844584	     -0.27734267	    -13.93994705	      2.80345865	     22.16821542	      3.88210023	      3.59460096	    -48.14500090	      1.93710324	     10.00522288	     34.95693244	    -12.45995151	      6.13412423	     -2.02245740
      4.02500000	     -2.86827077	      1.12916467	    362.48273153	      0.28026583	      1.39429661	     -0.96934362	      6.41446257	      2.14914462	      5.61675097	    -12.07756010	     -0.02794844	    -13.87852116	      2.80587221	     22.52174199	      3.98133485	      3.54844801	    -47.18987106	      2.00401128	      9.73005480	     34.59784482	    -12.50148498	      5.97231185	     -2.05304674
      4.03000000	     -2.95786008	      1.23191639	    362.52795367	      0.28486938	      1.39432135	     -0.96935227	      6.18092383	      2.04549834	      5.60603266	    -12.01742371	      0.17238702	    -13.94084791	      2.81882858	     22.94161620	      4.06298686	      3.50872085	    -46.19823639	      2.07544230	      9.62921265	     34.45844792	    -12.46844097	      5.82600133	     -2.12264289
      4.03500000	     -3.00429346	      1.33335228	    362.55832755	      0.28949264	      1.39437754	     -0.96939734	      5.89222031	      1.93950935	      5.59993741	    -11.94268493	      0.42478589	    -13.87501657	      2.84115245	     23.27951032	      4.14750696	      3.47146304	    -45.14038132	      2.07444246	      9.33987756	     34.15699814	    -12.48866881	      5.68560556	     -2.15089660
      4.04000000	     -3.09159265	      1.43576352	    362.59739727	      0.29409590	      1.39435662	     -0.96943379	      5.66425883	      1.83536722	      5.58681064	    -11.89728952	      0.63480019	    -13.92523067	      2.86019695	     23.64692397	      4.22617053	      3.43366755	    -44.03450703	      2.08200669	      9.22507417	     34.00769231	    -12.46508420	      5.54243110	     -2.22066570
      4.04500000	     -3.11908472	      1.52782398	    362.62739479	      0.29871562	      1.39437101	     -0.96951751	      5.35753891	      1.73797872	      5.57593364	    -11.82512629	      0.88551659	    -13.85387519	      2.89111263	     23.91370940	      4.30059208	      3.41300948	    -42.86182487	      2.03751693	      8.93305393	     33.76213026	    -12.51123191	      5.41686564	     -2.24595461
      4.05000000	     -3.18563614	      1.62513349	    362.65133954	      0.30333217	      1.39432451	     -0.96957657	      5.10428276	      1.63889304	      5.58373055	    -11.77323524	      1.12128832	    -13.85722709	      2.91863034	     24.20290398	      4.36739731	      3.36993800	    -41.63751471	      1.95168054	      8.75073618	     33.59292584	    -12.51152228	      5.27982914	     -2.31032523
